<svg width="183" height="39" viewBox="0 0 183 39" fill="none" xmlns="http://www.w3.org/2000/svg">
    <path d="M12.4072 7.39355H9.91699V30.7578H12.4072V33.9072H5.85938V4.24414H12.4072V7.39355ZM27.1729 21.0312H24.0527V29H19.9365V7.67188H27.085C28.2666 7.67188 29.3359 7.81348 30.293 8.09668C31.25 8.37012 32.0654 8.77539 32.7393 9.3125C33.4229 9.84961 33.9453 10.5186 34.3066 11.3193C34.6777 12.1201 34.8633 13.0479 34.8633 14.1025C34.8633 14.8643 34.7705 15.5527 34.585 16.168C34.4092 16.7734 34.1504 17.3203 33.8086 17.8086C33.4766 18.2871 33.0713 18.707 32.5928 19.0684C32.124 19.4297 31.5967 19.7422 31.0107 20.0059L35.5957 28.8096V29H31.1865L27.1729 21.0312ZM24.0527 17.6914H27.0996C28.2617 17.6914 29.1553 17.3984 29.7803 16.8125C30.415 16.2168 30.7324 15.4062 30.7324 14.3809C30.7324 13.3164 30.4248 12.4912 29.8096 11.9053C29.1943 11.3096 28.2861 11.0117 27.085 11.0117H24.0527V17.6914ZM41.8945 4.24414H48.457V33.9072H41.8945V30.7578H44.3994V7.39355H41.8945V4.24414Z"
          fill="#000000"/>
    <path class="logo-text"
          d="M62.8682 29.502C61.7288 29.502 60.6943 29.3151 59.7646 28.9414C58.835 28.5677 58.0374 28.0618 57.3721 27.4238C56.7067 26.7767 56.1917 26.0202 55.8271 25.1543C55.4717 24.2793 55.2939 23.3451 55.2939 22.3516V21.8047C55.2939 20.6745 55.4717 19.6445 55.8271 18.7148C56.1826 17.776 56.6794 16.9694 57.3174 16.2949C57.9554 15.6204 58.7119 15.0964 59.5869 14.7227C60.4619 14.349 61.4144 14.1621 62.4443 14.1621C63.5107 14.1621 64.4587 14.3398 65.2881 14.6953C66.1266 15.0417 66.833 15.5339 67.4072 16.1719C67.9906 16.8099 68.4326 17.5801 68.7334 18.4824C69.0342 19.3757 69.1846 20.3646 69.1846 21.4492V23.0625H59.1494C59.2223 23.5638 59.3682 24.0241 59.5869 24.4434C59.8148 24.8535 60.1019 25.209 60.4482 25.5098C60.7946 25.8105 61.1911 26.043 61.6377 26.207C62.0843 26.3711 62.5719 26.4531 63.1006 26.4531C63.4743 26.4531 63.8434 26.4167 64.208 26.3438C64.5817 26.2708 64.9372 26.166 65.2744 26.0293C65.6117 25.8835 65.9261 25.7057 66.2178 25.4961C66.5094 25.2865 66.7646 25.0404 66.9834 24.7578L68.8838 26.8086C68.6468 27.1458 68.3369 27.4785 67.9541 27.8066C67.5804 28.1257 67.1338 28.4128 66.6143 28.668C66.1038 28.9141 65.5342 29.1146 64.9053 29.2695C64.2764 29.4245 63.5973 29.502 62.8682 29.502ZM62.417 17.2383C61.9886 17.2383 61.5967 17.3158 61.2412 17.4707C60.8857 17.6165 60.5713 17.8307 60.2979 18.1133C60.0335 18.3958 59.8102 18.7331 59.6279 19.125C59.4456 19.5169 59.3089 19.9544 59.2178 20.4375H65.4521V20.1367C65.4339 19.7357 65.3564 19.3574 65.2197 19.002C65.083 18.6465 64.887 18.3411 64.6318 18.0859C64.3766 17.8216 64.0622 17.6165 63.6885 17.4707C63.3239 17.3158 62.9001 17.2383 62.417 17.2383ZM79.0557 26.4668C79.4294 26.4668 79.7848 26.4121 80.1221 26.3027C80.4593 26.1934 80.7555 26.0384 81.0107 25.8379C81.266 25.6374 81.4619 25.3958 81.5986 25.1133C81.7445 24.8307 81.8083 24.5163 81.79 24.1699H85.3721C85.3903 24.9355 85.2308 25.6465 84.8936 26.3027C84.5654 26.959 84.1143 27.5241 83.54 27.998C82.9658 28.472 82.2959 28.8457 81.5303 29.1191C80.7738 29.3835 79.9717 29.5156 79.124 29.5156C77.9756 29.5156 76.9684 29.3242 76.1025 28.9414C75.2367 28.5495 74.512 28.0163 73.9287 27.3418C73.3545 26.6673 72.917 25.8789 72.6162 24.9766C72.3245 24.0651 72.1787 23.0898 72.1787 22.0508V21.6406C72.1787 20.6016 72.3245 19.6309 72.6162 18.7285C72.9079 17.8171 73.3454 17.0241 73.9287 16.3496C74.512 15.6751 75.2321 15.1419 76.0889 14.75C76.9548 14.3581 77.9574 14.1621 79.0967 14.1621C80.0081 14.1621 80.8512 14.2988 81.626 14.5723C82.4007 14.8457 83.0661 15.2331 83.6221 15.7344C84.1872 16.2266 84.6247 16.8281 84.9346 17.5391C85.2445 18.2409 85.3903 19.0293 85.3721 19.9043H81.79C81.8083 19.5397 81.7536 19.1934 81.626 18.8652C81.4984 18.5371 81.3115 18.2546 81.0654 18.0176C80.8193 17.7806 80.5231 17.5938 80.1768 17.457C79.8304 17.3112 79.4521 17.2383 79.042 17.2383C78.4404 17.2383 77.9437 17.3613 77.5518 17.6074C77.1598 17.8535 76.8454 18.1816 76.6084 18.5918C76.3805 19.002 76.2165 19.4714 76.1162 20C76.0251 20.5286 75.9795 21.0755 75.9795 21.6406V22.0508C75.9795 22.625 76.0251 23.181 76.1162 23.7188C76.2074 24.2474 76.3669 24.7168 76.5947 25.127C76.8317 25.528 77.1462 25.8516 77.5381 26.0977C77.9391 26.3438 78.445 26.4668 79.0557 26.4668ZM98.5654 29.2285C98.4743 29.0462 98.3968 28.8366 98.333 28.5996C98.2692 28.3626 98.2145 28.112 98.1689 27.8477C97.9593 28.0755 97.7178 28.2897 97.4443 28.4902C97.1709 28.6908 96.8656 28.8685 96.5283 29.0234C96.2002 29.1693 95.8356 29.2832 95.4346 29.3652C95.0335 29.4564 94.6006 29.502 94.1357 29.502C93.3792 29.502 92.682 29.3926 92.0439 29.1738C91.415 28.9551 90.8727 28.6497 90.417 28.2578C89.9613 27.8659 89.6058 27.401 89.3506 26.8633C89.0954 26.3164 88.9678 25.724 88.9678 25.0859C88.9678 23.5273 89.5465 22.3242 90.7041 21.4766C91.8708 20.6198 93.6071 20.1914 95.9131 20.1914H98.0322V19.3164C98.0322 18.6055 97.7998 18.0449 97.335 17.6348C96.8701 17.2155 96.2002 17.0059 95.3252 17.0059C94.5505 17.0059 93.9854 17.1745 93.6299 17.5117C93.2744 17.8398 93.0967 18.2819 93.0967 18.8379H89.2959C89.2959 18.209 89.4326 17.612 89.7061 17.0469C89.9886 16.4818 90.3942 15.985 90.9229 15.5566C91.4606 15.1283 92.1123 14.791 92.8779 14.5449C93.6527 14.2897 94.5368 14.1621 95.5303 14.1621C96.4235 14.1621 97.2529 14.2715 98.0186 14.4902C98.7933 14.709 99.4632 15.0326 100.028 15.4609C100.593 15.8893 101.035 16.4316 101.354 17.0879C101.674 17.735 101.833 18.487 101.833 19.3438V25.6875C101.833 26.4805 101.883 27.1367 101.983 27.6562C102.084 28.1758 102.229 28.6224 102.421 28.9961V29.2285H98.5654ZM94.9424 26.5625C95.3252 26.5625 95.6807 26.5169 96.0088 26.4258C96.3369 26.3346 96.6331 26.2161 96.8975 26.0703C97.1618 25.9245 97.3896 25.7604 97.5811 25.5781C97.7725 25.3867 97.9229 25.1953 98.0322 25.0039V22.4609H96.0908C95.4984 22.4609 94.9925 22.5202 94.5732 22.6387C94.154 22.748 93.8122 22.9076 93.5479 23.1172C93.2835 23.3177 93.0876 23.5638 92.96 23.8555C92.8324 24.138 92.7686 24.4479 92.7686 24.7852C92.7686 25.2956 92.9463 25.7194 93.3018 26.0566C93.6663 26.3939 94.2132 26.5625 94.9424 26.5625ZM119.429 21.9688C119.429 23.0443 119.301 24.0423 119.046 24.9629C118.8 25.8835 118.431 26.681 117.938 27.3555C117.455 28.0208 116.854 28.5449 116.134 28.9277C115.414 29.3105 114.589 29.502 113.659 29.502C112.866 29.502 112.169 29.3652 111.567 29.0918C110.966 28.8184 110.442 28.4355 109.995 27.9434V34.916H106.194V14.4355H109.708L109.845 15.8848C110.3 15.3379 110.838 14.9141 111.458 14.6133C112.078 14.3125 112.802 14.1621 113.632 14.1621C114.571 14.1621 115.4 14.3444 116.12 14.709C116.84 15.0645 117.446 15.5749 117.938 16.2402C118.431 16.8965 118.8 17.6895 119.046 18.6191C119.301 19.5397 119.429 20.5605 119.429 21.6816V21.9688ZM115.628 21.6816C115.628 21.0618 115.569 20.4831 115.45 19.9453C115.341 19.3984 115.163 18.929 114.917 18.5371C114.68 18.1361 114.37 17.8216 113.987 17.5938C113.614 17.3659 113.158 17.252 112.62 17.252C111.955 17.252 111.408 17.3841 110.979 17.6484C110.56 17.9036 110.232 18.2682 109.995 18.7422V24.9219C110.232 25.3867 110.56 25.7604 110.979 26.043C111.408 26.3164 111.964 26.4531 112.647 26.4531C113.185 26.4531 113.641 26.3346 114.015 26.0977C114.397 25.8607 114.707 25.5371 114.944 25.127C115.181 24.7168 115.354 24.2428 115.464 23.7051C115.573 23.1582 115.628 22.5794 115.628 21.9688V21.6816ZM122.318 27.0273C122.318 26.6719 122.377 26.3438 122.496 26.043C122.614 25.7331 122.787 25.4688 123.015 25.25C123.243 25.0221 123.521 24.8444 123.849 24.7168C124.177 24.5801 124.546 24.5117 124.957 24.5117C125.367 24.5117 125.736 24.5801 126.064 24.7168C126.392 24.8444 126.666 25.0221 126.884 25.25C127.112 25.4688 127.285 25.7331 127.404 26.043C127.531 26.3438 127.595 26.6719 127.595 27.0273C127.595 27.3737 127.531 27.6973 127.404 27.998C127.285 28.2988 127.112 28.5632 126.884 28.791C126.666 29.0098 126.392 29.1829 126.064 29.3105C125.736 29.4382 125.367 29.502 124.957 29.502C124.546 29.502 124.177 29.4382 123.849 29.3105C123.521 29.1829 123.243 29.0098 123.015 28.791C122.787 28.5632 122.614 28.2988 122.496 27.998C122.377 27.6973 122.318 27.3737 122.318 27.0273ZM129.576 21.7227C129.576 20.6016 129.704 19.5762 129.959 18.6465C130.223 17.7168 130.606 16.9193 131.107 16.2539C131.609 15.5885 132.215 15.0736 132.926 14.709C133.646 14.3444 134.466 14.1621 135.387 14.1621C136.161 14.1621 136.84 14.3034 137.424 14.5859C138.016 14.8594 138.54 15.2513 138.996 15.7617V8.22852H142.81V29.2285H139.379L139.187 27.6836C138.722 28.2578 138.176 28.7044 137.547 29.0234C136.918 29.3424 136.189 29.502 135.359 29.502C134.457 29.502 133.646 29.3151 132.926 28.9414C132.215 28.5586 131.609 28.0345 131.107 27.3691C130.615 26.7038 130.237 25.9154 129.972 25.0039C129.708 24.0833 129.576 23.0853 129.576 22.0098V21.7227ZM133.377 22.0098C133.377 22.6296 133.427 23.2083 133.527 23.7461C133.637 24.2747 133.81 24.7396 134.047 25.1406C134.284 25.5326 134.589 25.8424 134.963 26.0703C135.336 26.2982 135.792 26.4121 136.33 26.4121C136.986 26.4121 137.528 26.2708 137.957 25.9883C138.394 25.7057 138.741 25.3184 138.996 24.8262V18.8379C138.741 18.3366 138.399 17.9492 137.971 17.6758C137.542 17.3932 137.004 17.252 136.357 17.252C135.819 17.252 135.359 17.3704 134.976 17.6074C134.603 17.8353 134.297 18.1543 134.06 18.5645C133.823 18.9655 133.65 19.4395 133.541 19.9863C133.431 20.5241 133.377 21.1029 133.377 21.7227V22.0098ZM153.967 29.502C152.827 29.502 151.793 29.3151 150.863 28.9414C149.933 28.5677 149.136 28.0618 148.471 27.4238C147.805 26.7767 147.29 26.0202 146.926 25.1543C146.57 24.2793 146.392 23.3451 146.392 22.3516V21.8047C146.392 20.6745 146.57 19.6445 146.926 18.7148C147.281 17.776 147.778 16.9694 148.416 16.2949C149.054 15.6204 149.81 15.0964 150.685 14.7227C151.56 14.349 152.513 14.1621 153.543 14.1621C154.609 14.1621 155.557 14.3398 156.387 14.6953C157.225 15.0417 157.931 15.5339 158.506 16.1719C159.089 16.8099 159.531 17.5801 159.832 18.4824C160.133 19.3757 160.283 20.3646 160.283 21.4492V23.0625H150.248C150.321 23.5638 150.467 24.0241 150.685 24.4434C150.913 24.8535 151.2 25.209 151.547 25.5098C151.893 25.8105 152.29 26.043 152.736 26.207C153.183 26.3711 153.67 26.4531 154.199 26.4531C154.573 26.4531 154.942 26.4167 155.306 26.3438C155.68 26.2708 156.036 26.166 156.373 26.0293C156.71 25.8835 157.025 25.7057 157.316 25.4961C157.608 25.2865 157.863 25.0404 158.082 24.7578L159.982 26.8086C159.745 27.1458 159.435 27.4785 159.053 27.8066C158.679 28.1257 158.232 28.4128 157.713 28.668C157.202 28.9141 156.633 29.1146 156.004 29.2695C155.375 29.4245 154.696 29.502 153.967 29.502ZM153.515 17.2383C153.087 17.2383 152.695 17.3158 152.34 17.4707C151.984 17.6165 151.67 17.8307 151.396 18.1133C151.132 18.3958 150.909 18.7331 150.726 19.125C150.544 19.5169 150.407 19.9544 150.316 20.4375H156.551V20.1367C156.532 19.7357 156.455 19.3574 156.318 19.002C156.181 18.6465 155.985 18.3411 155.73 18.0859C155.475 17.8216 155.161 17.6165 154.787 17.4707C154.422 17.3158 153.998 17.2383 153.515 17.2383ZM169.894 24.8398L170.086 25.9062L170.277 24.8809L173.531 14.4355H177.496L171.877 29.2285H168.308L162.662 14.4355H166.627L169.894 24.8398Z"
          fill="#000000"/>
</svg>
