<svg width="723" height="200" viewBox="0 0 723 200" fill="none" xmlns="http://www.w3.org/2000/svg">
    <path d="M44.3325 48.271H33.1265V153.41H44.3325V167.582H14.8672V34.0986H44.3325V48.271ZM110.778 109.64H96.7372V145.5H78.2143V49.5235H110.383C115.7 49.5235 120.512 50.1607 124.819 51.4351C129.125 52.6655 132.794 54.4893 135.827 56.9062C138.903 59.3232 141.254 62.3335 142.88 65.937C144.55 69.5405 145.385 73.7153 145.385 78.4612C145.385 81.8893 144.967 84.9871 144.133 87.756C143.341 90.4803 142.177 92.9413 140.639 95.1387C139.145 97.2919 137.321 99.1815 135.168 100.808C133.058 102.434 130.685 103.84 128.048 105.027L148.681 144.643V145.5H128.839L110.778 109.64ZM96.7372 94.6113H110.448C115.678 94.6113 119.699 93.2928 122.511 90.6562C125.368 87.9756 126.796 84.3279 126.796 79.714C126.796 74.9238 125.412 71.2104 122.643 68.5737C119.874 65.8931 115.787 64.5527 110.383 64.5527H96.7372V94.6113ZM177.025 34.0986H206.557V167.582H177.025V153.41H188.297V48.271H177.025V34.0986Z"
          fill="#64B5F6"/>
    <path d="M260.512 149.172C251.918 149.172 244.926 146.359 239.535 140.734C234.145 135.07 231.449 127.512 231.449 118.059V116.066C231.449 109.777 232.641 104.172 235.023 99.25C237.445 94.2891 240.805 90.4219 245.102 87.6484C249.438 84.8359 254.125 83.4297 259.164 83.4297C267.406 83.4297 273.812 86.1445 278.383 91.5742C282.953 97.0039 285.238 104.777 285.238 114.895V119.406H242.289C242.445 125.656 244.262 130.715 247.738 134.582C251.254 138.41 255.707 140.324 261.098 140.324C264.926 140.324 268.168 139.543 270.824 137.98C273.48 136.418 275.805 134.348 277.797 131.77L284.418 136.926C279.105 145.09 271.137 149.172 260.512 149.172ZM259.164 92.3359C254.789 92.3359 251.117 93.9375 248.148 97.1406C245.18 100.305 243.344 104.758 242.641 110.5H274.398V109.68C274.086 104.172 272.602 99.9141 269.945 96.9062C267.289 93.8594 263.695 92.3359 259.164 92.3359ZM323.266 140.324C327.133 140.324 330.512 139.152 333.402 136.809C336.293 134.465 337.895 131.535 338.207 128.02H348.461C348.266 131.652 347.016 135.109 344.711 138.391C342.406 141.672 339.32 144.289 335.453 146.242C331.625 148.195 327.562 149.172 323.266 149.172C314.633 149.172 307.758 146.301 302.641 140.559C297.562 134.777 295.023 126.887 295.023 116.887V115.07C295.023 108.898 296.156 103.41 298.422 98.6055C300.688 93.8008 303.93 90.0703 308.148 87.4141C312.406 84.7578 317.426 83.4297 323.207 83.4297C330.316 83.4297 336.215 85.5586 340.902 89.8164C345.629 94.0742 348.148 99.6016 348.461 106.398H338.207C337.895 102.297 336.332 98.9375 333.52 96.3203C330.746 93.6641 327.309 92.3359 323.207 92.3359C317.699 92.3359 313.422 94.3281 310.375 98.3125C307.367 102.258 305.863 107.98 305.863 115.48V117.531C305.863 124.836 307.367 130.461 310.375 134.406C313.383 138.352 317.68 140.324 323.266 140.324ZM399.789 148C399.164 146.75 398.656 144.523 398.266 141.32C393.227 146.555 387.211 149.172 380.219 149.172C373.969 149.172 368.832 147.414 364.809 143.898C360.824 140.344 358.832 135.852 358.832 130.422C358.832 123.82 361.332 118.703 366.332 115.07C371.371 111.398 378.441 109.562 387.543 109.562H398.09V104.582C398.09 100.793 396.957 97.7852 394.691 95.5586C392.426 93.293 389.086 92.1602 384.672 92.1602C380.805 92.1602 377.562 93.1367 374.945 95.0898C372.328 97.043 371.02 99.4062 371.02 102.18H360.121C360.121 99.0156 361.234 95.9688 363.461 93.0391C365.727 90.0703 368.773 87.7266 372.602 86.0078C376.469 84.2891 380.707 83.4297 385.316 83.4297C392.621 83.4297 398.344 85.2656 402.484 88.9375C406.625 92.5703 408.773 97.5898 408.93 103.996V133.176C408.93 138.996 409.672 143.625 411.156 147.062V148H399.789ZM381.801 139.738C385.199 139.738 388.422 138.859 391.469 137.102C394.516 135.344 396.723 133.059 398.09 130.246V117.238H389.594C376.312 117.238 369.672 121.125 369.672 128.898C369.672 132.297 370.805 134.953 373.07 136.867C375.336 138.781 378.246 139.738 381.801 139.738ZM479.477 117.004C479.477 126.652 477.27 134.426 472.855 140.324C468.441 146.223 462.465 149.172 454.926 149.172C447.23 149.172 441.176 146.73 436.762 141.848V172.375H425.922V84.6016H435.824L436.352 91.6328C440.766 86.1641 446.898 83.4297 454.75 83.4297C462.367 83.4297 468.383 86.3008 472.797 92.043C477.25 97.7852 479.477 105.773 479.477 116.008V117.004ZM468.637 115.773C468.637 108.625 467.113 102.98 464.066 98.8398C461.02 94.6992 456.84 92.6289 451.527 92.6289C444.965 92.6289 440.043 95.5391 436.762 101.359V131.652C440.004 137.434 444.965 140.324 451.645 140.324C456.84 140.324 460.961 138.273 464.008 134.172C467.094 130.031 468.637 123.898 468.637 115.773ZM493.539 142.316C493.539 140.441 494.086 138.879 495.18 137.629C496.312 136.379 497.992 135.754 500.219 135.754C502.445 135.754 504.125 136.379 505.258 137.629C506.43 138.879 507.016 140.441 507.016 142.316C507.016 144.113 506.43 145.617 505.258 146.828C504.125 148.039 502.445 148.645 500.219 148.645C497.992 148.645 496.312 148.039 495.18 146.828C494.086 145.617 493.539 144.113 493.539 142.316ZM522.309 115.773C522.309 106.047 524.613 98.2344 529.223 92.3359C533.832 86.3984 539.867 83.4297 547.328 83.4297C554.75 83.4297 560.629 85.9688 564.965 91.0469V58H575.805V148H565.844L565.316 141.203C560.98 146.516 554.945 149.172 547.211 149.172C539.867 149.172 533.871 146.164 529.223 140.148C524.613 134.133 522.309 126.281 522.309 116.594V115.773ZM533.148 117.004C533.148 124.191 534.633 129.816 537.602 133.879C540.57 137.941 544.672 139.973 549.906 139.973C556.781 139.973 561.801 136.887 564.965 130.715V101.594C561.723 95.6172 556.742 92.6289 550.023 92.6289C544.711 92.6289 540.57 94.6797 537.602 98.7812C534.633 102.883 533.148 108.957 533.148 117.004ZM618.988 149.172C610.395 149.172 603.402 146.359 598.012 140.734C592.621 135.07 589.926 127.512 589.926 118.059V116.066C589.926 109.777 591.117 104.172 593.5 99.25C595.922 94.2891 599.281 90.4219 603.578 87.6484C607.914 84.8359 612.602 83.4297 617.641 83.4297C625.883 83.4297 632.289 86.1445 636.859 91.5742C641.43 97.0039 643.715 104.777 643.715 114.895V119.406H600.766C600.922 125.656 602.738 130.715 606.215 134.582C609.73 138.41 614.184 140.324 619.574 140.324C623.402 140.324 626.645 139.543 629.301 137.98C631.957 136.418 634.281 134.348 636.273 131.77L642.895 136.926C637.582 145.09 629.613 149.172 618.988 149.172ZM617.641 92.3359C613.266 92.3359 609.594 93.9375 606.625 97.1406C603.656 100.305 601.82 104.758 601.117 110.5H632.875V109.68C632.562 104.172 631.078 99.9141 628.422 96.9062C625.766 93.8594 622.172 92.3359 617.641 92.3359ZM676.41 133.293L692.113 84.6016H703.188L680.453 148H672.191L649.223 84.6016H660.297L676.41 133.293Z"
          fill="#64B5F6"/>
</svg>
